<svg xmlns="http://www.w3.org/2000/svg" xmlns:xlink="http://www.w3.org/1999/xlink" viewBox="0 0 667.83 152.51"><defs><style>.cls-1{fill:url(#Purple);}</style><linearGradient id="Purple" x1="15.18" y1="161.5" x2="135.7" y2="-10.63" gradientUnits="userSpaceOnUse"><stop offset="0.1" stop-color="#5e4078"/><stop offset="0.42" stop-color="#67477c"/><stop offset="0.95" stop-color="#7f5a89"/><stop offset="1" stop-color="#825c8a"/></linearGradient></defs><g id="Layer_2" data-name="Layer 2"><g id="Artboard"><path class="cls-1" d="M75.44,37.72,37.72,75.44H0V37.72H37.72V0H75.44ZM37.72,75.44v37.72H0v37.71H37.72l37.72-37.71V75.44Zm37.72,75.43h37.72V113.16h37.71V75.44H113.16L75.44,113.16ZM150.87,0H113.16V37.72H75.44V75.44h37.72l37.71-37.72Z"/><path d="M219.08,82h15.15v47.19c0,8.87-2.41,23.34-23,23.34-11.48,0-22.68-6.27-22.68-21.32v-6h13.7v3.09c0,6.65,1.64,11.48,8.78,11.48,8,0,8-6.46,8-11.29Zm41.51,39.27H294V109.48H260.59V94.72H297V82H245.44v68.89h52.3V138.14H260.59Zm90.16,6.95h-.19L321.8,82H306.75v68.89h14.18V104.75h.2l28.65,46.12h15.15V82H350.75Zm69.39,0H420L391.2,82H376.14v68.89h14.19V104.75h.19l28.66,46.12h15.14V82H420.14Zm25.4,22.67h15.14V82H445.54Zm70.35-22.67h-.19L487,82H471.9v68.89h14.18V104.75h.19l28.66,46.12h15.15V82H515.89Zm58-3.28H589.1c-.87,9.55-6.56,14.86-16.4,14.86-13.61,0-18.72-11.58-18.72-23.06,0-12.06,5.11-23.64,18.72-23.64,7.13,0,12.83,4,14.56,11.58h14.48c-1.64-15.63-15-24.32-29-24.32-21.33,0-33.87,15.92-33.87,36.38,0,19.88,12.54,35.79,33.87,35.79a23.32,23.32,0,0,0,18.91-9.45l1.54,7.81h9.65V113.63H573.85Zm73.52-14.57c-17.27-4.44-20.55-5.11-20.55-10.42,0-5.79,5.6-7.82,10.42-7.82,7.24,0,13.13,2.13,13.61,10.43h14.66c0-15.92-13.22-22.2-27.59-22.2-12.45,0-25.76,6.76-25.76,20.84,0,12.93,10.32,16.89,20.55,19.59s20.45,4,20.45,11.39c0,7-8.1,8.58-13.41,8.58-8.1,0-15.24-3.57-15.24-12.73H609.84c-.19,17,14.09,24.5,29.33,24.5,18.72,0,28.66-9.45,28.66-22.09C667.83,114.79,652.39,111.61,647.37,110.35ZM211.26,70.53c20.55,0,23-14.47,23-23.35V0H219.07V46.51c0,4.82,0,11.29-8,11.29-7.13,0-8.78-4.83-8.78-11.48V43.23h-13.7v6C188.58,64.26,199.78,70.53,211.26,70.53ZM255,54H239.84V68.89H255Zm20.94,14.86H260.59L286.74,0h15.54L328,68.89H312.31L307.1,53.55H281.34Zm9.36-26.63h17.85L294.46,17h-.19ZM348.79,54H333.64V68.89h15.15Z"/></g></g></svg>